<svg width="252" height="252" viewBox="0 0 252 252" fill="none" xmlns="http://www.w3.org/2000/svg">
<path d="M125.781 0C56.3165 0 0 56.3165 0 125.781C0 195.246 56.3165 251.562 125.781 251.562C195.246 251.562 251.562 195.246 251.562 125.781C251.562 56.3165 195.246 0 125.781 0ZM84.5544 181.884L75.6574 184.395L77.9173 193.368L68.9617 191.099L66.446 199.992L59.8174 193.544L53.1803 199.992L50.6605 191.095L41.7049 193.364L43.9773 184.391L35.0804 181.88L41.5204 175.251L35.0804 168.618L43.9773 166.103L41.7049 157.139L50.6605 159.411L53.1803 150.514L59.8174 156.954L66.446 150.514L68.9659 159.411L77.9215 157.139L75.6616 166.103L84.5585 168.618L78.1018 175.255L84.5544 181.884ZM59.8174 101.044C37.1432 101.044 30.9548 76.3115 30.9548 76.3115C30.9548 76.3115 37.1516 80.609 45.1722 83.7368C43.975 81.4438 43.3425 78.8981 43.3274 76.3115C43.4241 72.0025 45.2036 67.9024 48.285 64.8889C51.3665 61.8753 55.5052 60.1877 59.8153 60.1871C64.1254 60.1866 68.2645 61.8732 71.3468 64.8859C74.4291 67.8987 76.2096 71.9983 76.3073 76.3073C76.3073 78.9906 75.5987 81.4895 74.4625 83.7326C82.4832 80.6174 88.68 76.3073 88.68 76.3073C88.68 76.3073 83.0072 101.044 59.8174 101.044ZM187.666 225.48L96.2101 134.028H195.162L79.1877 18.0538C93.8895 11.6637 109.751 8.37242 125.781 8.38542C190.512 8.38542 243.177 61.05 243.177 125.781C243.177 167.813 220.96 204.738 187.666 225.48Z" fill="black"/>
</svg>
