<svg width="24" height="29" viewBox="0 0 29 29" fill="none" xmlns="http://www.w3.org/2000/svg">
    <path d="M11.5002 25.1608C12.6032 25.1608 13.6319 24.8434 14.5001 24.295C15.3684 24.8434 16.3971 25.1608 17.5001 25.1608H19.75C22.8569 25.1608 25.3749 22.6425 25.3749 19.5359V17.286C25.3749 16.1831 25.0576 15.1543 24.5091 14.286C25.0576 13.4178 25.3749 12.389 25.3749 11.2861V9.03613C25.3749 5.92958 22.8569 3.41123 19.75 3.41123H17.5001C16.3971 3.41123 15.3684 3.72862 14.5001 4.27705C13.6319 3.72862 12.6032 3.41123 11.5002 3.41123H9.25024C6.14337 3.41123 3.62535 5.92958 3.62535 9.03613V11.2861C3.62535 12.389 3.94273 13.4178 4.49117 14.286C3.94273 15.1543 3.62535 16.1831 3.62535 17.286V19.5359C3.62535 22.6425 6.14338 25.1608 9.25024 25.1608H11.5002Z" fill="black" stroke="white" stroke-width="6.74987"/>
    <circle cx="14.5" cy="15" r="2.5" fill="white" stroke="black"/>
</svg>
