<svg width="24" height="24" viewBox="0 0 36 40" fill="none" xmlns="http://www.w3.org/2000/svg">
  <path d="M15 36.2268C16.5632 36.2268 17.9085 35.7486 19 34.9715C20.0915 35.7486 21.4368 36.2268 23 36.2268H26C30.5271 36.2268 33.2268 32.2158 33.2268 28.55V25.1C33.2268 23.5136 32.7212 21.8626 31.7808 20.5C32.7212 19.1374 33.2268 17.4864 33.2268 15.9V12.45C33.2268 8.78422 30.5271 4.77318 26 4.77318H23C21.4368 4.77318 20.0915 5.25142 19 6.02854C17.9085 5.25142 16.5632 4.77318 15 4.77318H12C7.47295 4.77318 4.77318 8.78422 4.77318 12.45V15.9C4.77318 17.4864 5.27877 19.1374 6.21923 20.5C5.27877 21.8626 4.77318 23.5136 4.77318 25.1V28.55C4.77318 32.2158 7.47295 36.2268 12 36.2268H15Z" fill="white" stroke="black" stroke-width="8.45363"/>
  <circle cx="19" cy="20.5" r="3" fill="black"/>
</svg>