<svg width="729" height="484" viewBox="0 0 729 484" fill="none" xmlns="http://www.w3.org/2000/svg">
<g id="Group 14">
<path id="Next" d="M11.5674 246V82.3847H6.08472L10.1246 44.0058H50.812L83.7082 153.66V44.0058H122.953V246H83.7082L50.812 136.346V246H11.5674ZM134.585 207.044V142.983C134.585 128.17 137.76 117.589 144.108 111.241C150.649 104.893 161.326 101.718 176.139 101.718H188.835C203.648 101.718 214.229 104.893 220.577 111.241C227.118 117.589 230.388 128.17 230.388 142.983V192.904H173.83V208.487C173.83 209.449 174.311 209.93 175.273 209.93H189.701C190.663 209.93 191.144 209.449 191.144 208.487V198.964H230.388V207.044C230.388 221.665 227.118 232.245 220.577 238.786C214.229 245.134 203.648 248.309 188.835 248.309H176.139C161.326 248.309 150.649 245.134 144.108 238.786C137.76 232.438 134.585 221.857 134.585 207.044ZM191.144 141.54C191.144 140.578 190.663 140.097 189.701 140.097H175.273C174.311 140.097 173.83 140.578 173.83 141.54V160.297H191.144V141.54ZM236.315 246L261.42 173.859L236.315 101.718H275.271L286.814 147.889L298.068 101.718H337.024L311.919 173.859L337.024 246H298.068L286.814 199.83L275.271 246H236.315ZM412.821 207.621V246H384.542C376.462 246 369.922 243.595 364.92 238.786C359.918 233.784 357.417 227.243 357.417 219.164V137.212H345.586L348.472 101.718H357.417V82.3847H351.357L354.243 44.0058H396.373V101.718H409.936L407.05 137.212H396.373V207.621H412.821Z" fill="url(#paint0_linear_529_38)"/>
<path id="Development" d="M67.2261 430.799C67.2261 439.96 65.1769 446.589 61.0786 450.687C57.1008 454.665 50.4712 456.654 41.1897 456.654H7.19765V354.136H3.76229L6.29361 330.088H41.1897C50.4712 330.088 57.1008 332.077 61.0786 336.055C65.1769 340.033 67.2261 346.662 67.2261 355.944V430.799ZM41.7321 432.607C42.3348 432.607 42.6361 432.305 42.6361 431.703V355.04C42.6361 354.437 42.3348 354.136 41.7321 354.136H31.7876V432.607H41.7321ZM74.3906 432.245V392.106C74.3906 382.824 76.3795 376.194 80.3573 372.217C84.4556 368.239 91.1455 366.25 100.427 366.25H108.383C117.664 366.25 124.294 368.239 128.272 372.217C132.37 376.194 134.419 382.824 134.419 392.106V423.385H98.9806V433.149C98.9806 433.752 99.2819 434.053 99.8846 434.053H108.925C109.528 434.053 109.829 433.752 109.829 433.149V427.182H134.419V432.245C134.419 441.406 132.37 448.036 128.272 452.134C124.294 456.112 117.664 458.101 108.383 458.101H100.427C91.1455 458.101 84.4556 456.112 80.3573 452.134C76.3795 448.156 74.3906 441.527 74.3906 432.245ZM109.829 391.201C109.829 390.599 109.528 390.297 108.925 390.297H99.8846C99.2819 390.297 98.9806 390.599 98.9806 391.201V402.954H109.829V391.201ZM155.49 456.654L138.133 366.25H159.106L167.785 416.334L176.464 366.25H197.438L180.08 456.654H155.49ZM201.168 432.245V392.106C201.168 382.824 203.157 376.194 207.135 372.217C211.233 368.239 217.923 366.25 227.205 366.25H235.16C244.442 366.25 251.072 368.239 255.049 372.217C259.148 376.194 261.197 382.824 261.197 392.106V423.385H225.758V433.149C225.758 433.752 226.06 434.053 226.662 434.053H235.703C236.306 434.053 236.607 433.752 236.607 433.149V427.182H261.197V432.245C261.197 441.406 259.148 448.036 255.049 452.134C251.072 456.112 244.442 458.101 235.16 458.101H227.205C217.923 458.101 211.233 456.112 207.135 452.134C203.157 448.156 201.168 441.527 201.168 432.245ZM236.607 391.201C236.607 390.599 236.306 390.297 235.703 390.297H226.662C226.06 390.297 225.758 390.599 225.758 391.201V402.954H236.607V391.201ZM271.335 456.654V354.136H268.442L270.25 330.088H295.925V432.607H299.541L301.349 456.654H271.335ZM341.313 391.201C341.313 390.599 341.012 390.297 340.409 390.297H331.369C330.766 390.297 330.465 390.599 330.465 391.201V433.149C330.465 433.752 330.766 434.053 331.369 434.053H340.409C341.012 434.053 341.313 433.752 341.313 433.149V391.201ZM305.875 432.245V392.106C305.875 382.824 307.864 376.194 311.842 372.217C315.94 368.239 322.63 366.25 331.911 366.25H339.867C349.148 366.25 355.778 368.239 359.756 372.217C363.854 376.194 365.903 382.824 365.903 392.106V432.245C365.903 441.406 363.854 448.036 359.756 452.134C355.778 456.112 349.148 458.101 339.867 458.101H331.911C322.63 458.101 315.94 456.112 311.842 452.134C307.864 448.156 305.875 441.527 305.875 432.245ZM375.839 480.521V390.297H372.223L374.031 366.25H400.429V375.833L406.938 366.25H409.831C419.113 366.25 425.743 368.239 429.72 372.217C433.819 376.194 435.868 382.824 435.868 392.106V430.799C435.868 439.96 433.879 446.589 429.901 450.687C426.044 454.665 419.595 456.654 410.555 456.654H408.927C405.793 456.654 402.961 456.112 400.429 455.027V480.521H375.839ZM410.374 432.607C410.977 432.607 411.278 432.305 411.278 431.703V391.201C411.278 390.599 410.977 390.297 410.374 390.297H400.429V432.607H410.374ZM445.761 456.654V390.297H442.145L443.953 366.25H470.351V375.833L476.86 366.25H479.753C492.289 366.25 500.185 370.167 503.439 378.002L511.395 366.25H515.192C524.473 366.25 531.103 368.239 535.081 372.217C539.179 376.194 541.228 382.824 541.228 392.106V432.607H544.844L543.036 456.654H516.638V391.201C516.638 390.599 516.337 390.297 515.734 390.297H505.79C505.79 390.78 505.79 391.382 505.79 392.106V456.654H481.2V391.201C481.2 390.599 480.899 390.297 480.296 390.297H470.351V456.654H445.761ZM550.249 432.245V392.106C550.249 382.824 552.238 376.194 556.216 372.217C560.314 368.239 567.004 366.25 576.285 366.25H584.241C593.522 366.25 600.152 368.239 604.13 372.217C608.228 376.194 610.277 382.824 610.277 392.106V423.385H574.839V433.149C574.839 433.752 575.14 434.053 575.743 434.053H584.783C585.386 434.053 585.687 433.752 585.687 433.149V427.182H610.277V432.245C610.277 441.406 608.228 448.036 604.13 452.134C600.152 456.112 593.522 458.101 584.241 458.101H576.285C567.004 458.101 560.314 456.112 556.216 452.134C552.238 448.156 550.249 441.527 550.249 432.245ZM585.687 391.201C585.687 390.599 585.386 390.297 584.783 390.297H575.743C575.14 390.297 574.839 390.599 574.839 391.201V402.954H585.687V391.201ZM619.331 456.654V390.297H615.714L617.522 366.25H643.92V375.833L650.43 366.25H653.323C662.604 366.25 669.234 368.239 673.211 372.217C677.31 376.194 679.359 382.824 679.359 392.106V432.607H682.975L681.167 456.654H654.769V391.201C654.769 390.599 654.468 390.297 653.865 390.297H643.92V456.654H619.331ZM727.059 432.607V456.654H709.339C704.277 456.654 700.178 455.147 697.044 452.134C693.91 449 692.343 444.902 692.343 439.839V388.489H684.93L686.738 366.25H692.343V354.136H688.546L690.354 330.088H716.752V366.25H725.25L723.442 388.489H716.752V432.607H727.059Z" fill="url(#paint1_linear_529_38)"/>
<path id="Era" d="M442.162 244.538V167.39H439.577L441.481 149.293H480.395L479.307 167.39H460.666V187.799H477.402L476.314 205.896H460.666V226.441H480.395L479.307 244.538H442.162ZM487.177 244.538V194.602H484.456L485.817 176.506H505.682V184.262L510.58 176.506H521.601V197.324H505.682V244.538H487.177ZM545.272 244.538C538.287 244.538 533.253 243.041 530.169 240.048C527.176 236.963 525.679 231.974 525.679 225.081V195.963C525.679 188.979 527.13 183.99 530.033 180.996C533.026 178.003 537.925 176.506 544.728 176.506H545.952C548.311 176.506 550.442 176.914 552.347 177.731V176.506H570.852V226.441H572.212L573.573 244.538H552.347V237.326L547.449 244.538H545.272ZM544.864 194.602C544.41 194.602 544.183 194.829 544.183 195.283V225.761C544.183 226.214 544.41 226.441 544.864 226.441H552.347V194.602H544.864Z" fill="url(#paint2_linear_529_38)"/>
</g>
<defs>
<linearGradient id="paint0_linear_529_38" x1="843.5" y1="591.5" x2="45" y2="101" gradientUnits="userSpaceOnUse">
<stop stop-color="#6725EB"/>
<stop offset="0.619204" stop-color="#7E4BEC"/>
<stop offset="1" stop-color="#191328"/>
</linearGradient>
<linearGradient id="paint1_linear_529_38" x1="364.5" y1="302.654" x2="364.5" y2="483.654" gradientUnits="userSpaceOnUse">
<stop stop-color="#6725EB"/>
<stop offset="0.5" stop-color="#7E4BEC"/>
<stop offset="1" stop-color="#342851"/>
</linearGradient>
<linearGradient id="paint2_linear_529_38" x1="505.883" y1="128.538" x2="505.883" y2="264.538" gradientUnits="userSpaceOnUse">
<stop stop-color="#6725EB"/>
<stop offset="0.5" stop-color="#7E4BEC"/>
<stop offset="1" stop-color="#342753"/>
</linearGradient>
</defs>
</svg>
