<svg width="908" height="321" viewBox="0 0 908 321" fill="none" xmlns="http://www.w3.org/2000/svg">
<mask id="path-1-inside-1_286_70" fill="white">
<path d="M22.2783 167.234C47.0339 182.505 96.994 213.046 98.7899 213.046V152.211L157.343 136.075L142.377 86.5543L78.3993 74.6841L13.1118 107.142L22.2783 167.234Z"/>
</mask>
<path d="M98.7899 213.046V480.336H366.08V213.046H98.7899ZM22.2783 167.234L-241.955 207.54L-223.307 329.797L-118.05 394.725L22.2783 167.234ZM13.1118 107.142L-105.878 -132.202L-280.534 -45.372L-251.122 147.447L13.1118 107.142ZM78.3993 74.6841L127.159 -188.121L39.3657 -204.41L-40.5901 -164.66L78.3993 74.6841ZM142.377 86.5543L398.239 9.23101L351.157 -146.561L191.137 -176.251L142.377 86.5543ZM157.343 136.075L228.356 393.759L492.452 320.98L413.204 58.752L157.343 136.075ZM98.7899 152.211L27.7772 -105.473L-168.5 -51.3828V152.211H98.7899ZM98.7899 -54.244C120.727 -54.244 138.115 -51.5146 147.739 -49.7198C158.268 -47.7563 166.799 -45.5055 172.477 -43.8743C183.564 -40.6889 192.103 -37.443 196.404 -35.7494C205.25 -32.2665 211.88 -29.0872 214.204 -27.9643C219.619 -25.3474 223.462 -23.2391 223.956 -22.9697C225.757 -21.9876 226.169 -21.719 224.13 -22.907C220.637 -24.9424 214.87 -28.3796 207.288 -32.9571C192.47 -41.9025 174.575 -52.8731 162.606 -60.2563L-118.05 394.725C-105.263 402.613 -85.8003 414.548 -68.9996 424.69C-60.7729 429.657 -52.1665 434.809 -45.0133 438.978C-41.729 440.892 -36.926 443.665 -31.9522 446.377C-29.8717 447.512 -24.747 450.291 -18.3905 453.363C-15.5962 454.713 -8.58078 458.066 0.56113 461.665C5.01051 463.417 13.6745 466.707 24.8648 469.922C31.099 471.713 60.3191 480.336 98.7899 480.336V-54.244ZM286.512 126.929L277.345 66.836L-251.122 147.447L-241.955 207.54L286.512 126.929ZM132.101 346.486L197.389 314.028L-40.5901 -164.66L-105.878 -132.202L132.101 346.486ZM29.6396 337.489L93.6176 349.359L191.137 -176.251L127.159 -188.121L29.6396 337.489ZM-113.484 163.878L-98.5186 213.398L413.204 58.752L398.239 9.23101L-113.484 163.878ZM86.3301 -121.609L27.7772 -105.473L169.803 409.895L228.356 393.759L86.3301 -121.609ZM-168.5 152.211V213.046H366.08V152.211H-168.5Z" fill="#541CCA" mask="url(#path-1-inside-1_286_70)"/>
<path d="M198.288 135.307V71.1198H196.137L197.722 56.0635H213.684L226.59 99.0815V56.0635H241.985V135.307H226.59L213.684 92.2892V135.307H198.288ZM246.549 120.024V94.8929C246.549 89.0817 247.794 84.9308 250.285 82.4403C252.851 79.9498 257.039 78.7045 262.851 78.7045H267.832C273.643 78.7045 277.794 79.9498 280.284 82.4403C282.85 84.9308 284.133 89.0817 284.133 94.8929V114.477H261.945V120.59C261.945 120.968 262.134 121.156 262.511 121.156H268.171C268.549 121.156 268.737 120.968 268.737 120.59V116.855H284.133V120.024C284.133 125.76 282.85 129.911 280.284 132.477C277.794 134.968 273.643 136.213 267.832 136.213H262.851C257.039 136.213 252.851 134.968 250.285 132.477C247.794 129.986 246.549 125.836 246.549 120.024ZM268.737 94.3268C268.737 93.9495 268.549 93.7608 268.171 93.7608H262.511C262.134 93.7608 261.945 93.9495 261.945 94.3268V101.685H268.737V94.3268ZM286.458 135.307L296.307 107.006L286.458 78.7045H301.741L306.269 96.8174L310.684 78.7045H325.967L316.118 107.006L325.967 135.307H310.684L306.269 117.194L301.741 135.307H286.458ZM355.703 120.251V135.307H344.609C341.439 135.307 338.873 134.364 336.911 132.477C334.948 130.515 333.967 127.949 333.967 124.779V92.6288H329.326L330.458 78.7045H333.967V71.1198H331.59L332.722 56.0635H349.25V78.7045H354.571L353.439 92.6288H349.25V120.251H355.703Z" fill="url(#paint0_linear_286_70)"/>
<path d="M363.815 135.407V105.096H362.799L363.547 97.9861H378.836L378.409 105.096H371.085V113.115H377.66L377.232 120.225H371.085V128.297H378.836L378.409 135.407H363.815ZM381.501 135.407V115.788H380.432L380.966 108.678H388.771V111.725L390.696 108.678H395.026V116.857H388.771V135.407H381.501ZM404.326 135.407C401.581 135.407 399.604 134.819 398.392 133.643C397.216 132.431 396.628 130.471 396.628 127.762V116.322C396.628 113.578 397.198 111.618 398.338 110.442C399.514 109.266 401.439 108.678 404.112 108.678H404.593C405.52 108.678 406.357 108.838 407.105 109.159V108.678H414.376V128.297H414.91L415.445 135.407H407.105V132.573L405.181 135.407H404.326ZM404.165 115.788C403.987 115.788 403.898 115.877 403.898 116.055V128.03C403.898 128.208 403.987 128.297 404.165 128.297H407.105V115.788H404.165Z" fill="url(#paint1_linear_286_70)"/>
<path d="M222.533 185.886C222.533 189.471 221.731 192.065 220.127 193.669C218.571 195.225 215.976 196.003 212.344 196.003H199.043V155.886H197.698L198.689 146.476H212.344C215.976 146.476 218.571 147.254 220.127 148.811C221.731 150.368 222.533 152.962 222.533 156.594V185.886ZM212.557 186.593C212.792 186.593 212.91 186.475 212.91 186.239V156.24C212.91 156.004 212.792 155.886 212.557 155.886H208.665V186.593H212.557ZM225.336 186.452V170.745C225.336 167.113 226.115 164.518 227.671 162.962C229.275 161.405 231.893 160.627 235.525 160.627H238.638C242.27 160.627 244.864 161.405 246.421 162.962C248.025 164.518 248.826 167.113 248.826 170.745V182.985H234.959V186.805C234.959 187.041 235.077 187.159 235.313 187.159H238.85C239.086 187.159 239.204 187.041 239.204 186.805V184.471H248.826V186.452C248.826 190.037 248.025 192.631 246.421 194.235C244.864 195.791 242.27 196.569 238.638 196.569H235.525C231.893 196.569 229.275 195.791 227.671 194.235C226.115 192.678 225.336 190.084 225.336 186.452ZM239.204 170.391C239.204 170.155 239.086 170.037 238.85 170.037H235.313C235.077 170.037 234.959 170.155 234.959 170.391V174.99H239.204V170.391ZM257.072 196.003L250.28 160.627H258.487L261.883 180.225L265.279 160.627H273.487L266.694 196.003H257.072ZM274.947 186.452V170.745C274.947 167.113 275.725 164.518 277.281 162.962C278.885 161.405 281.503 160.627 285.135 160.627H288.248C291.88 160.627 294.475 161.405 296.031 162.962C297.635 164.518 298.437 167.113 298.437 170.745V182.985H284.569V186.805C284.569 187.041 284.687 187.159 284.923 187.159H288.46C288.696 187.159 288.814 187.041 288.814 186.805V184.471H298.437V186.452C298.437 190.037 297.635 192.631 296.031 194.235C294.475 195.791 291.88 196.569 288.248 196.569H285.135C281.503 196.569 278.885 195.791 277.281 194.235C275.725 192.678 274.947 190.084 274.947 186.452ZM288.814 170.391C288.814 170.155 288.696 170.037 288.46 170.037H284.923C284.687 170.037 284.569 170.155 284.569 170.391V174.99H288.814V170.391ZM302.404 196.003V155.886H301.272L301.979 146.476H312.026V186.593H313.441L314.149 196.003H302.404ZM329.788 170.391C329.788 170.155 329.67 170.037 329.434 170.037H325.896C325.66 170.037 325.542 170.155 325.542 170.391V186.805C325.542 187.041 325.66 187.159 325.896 187.159H329.434C329.67 187.159 329.788 187.041 329.788 186.805V170.391ZM315.92 186.452V170.745C315.92 167.113 316.698 164.518 318.255 162.962C319.859 161.405 322.476 160.627 326.108 160.627H329.222C332.854 160.627 335.448 161.405 337.004 162.962C338.608 164.518 339.41 167.113 339.41 170.745V186.452C339.41 190.037 338.608 192.631 337.004 194.235C335.448 195.791 332.854 196.569 329.222 196.569H326.108C322.476 196.569 319.859 195.791 318.255 194.235C316.698 192.678 315.92 190.084 315.92 186.452ZM343.298 205.343V170.037H341.883L342.591 160.627H352.921V164.377L355.468 160.627H356.6C360.232 160.627 362.826 161.405 364.383 162.962C365.986 164.518 366.788 167.113 366.788 170.745V185.886C366.788 189.471 366.01 192.065 364.453 193.669C362.944 195.225 360.42 196.003 356.883 196.003H356.246C355.02 196.003 353.911 195.791 352.921 195.367V205.343H343.298ZM356.812 186.593C357.048 186.593 357.166 186.475 357.166 186.239V170.391C357.166 170.155 357.048 170.037 356.812 170.037H352.921V186.593H356.812ZM370.66 196.003V170.037H369.245L369.952 160.627H380.282V164.377L382.829 160.627H383.961C388.867 160.627 391.956 162.16 393.23 165.226L396.343 160.627H397.829C401.461 160.627 404.055 161.405 405.612 162.962C407.216 164.518 408.017 167.113 408.017 170.745V186.593H409.432L408.725 196.003H398.395V170.391C398.395 170.155 398.277 170.037 398.041 170.037H394.15C394.15 170.226 394.15 170.461 394.15 170.745V196.003H384.527V170.391C384.527 170.155 384.409 170.037 384.174 170.037H380.282V196.003H370.66ZM411.547 186.452V170.745C411.547 167.113 412.326 164.518 413.882 162.962C415.486 161.405 418.104 160.627 421.736 160.627H424.849C428.481 160.627 431.075 161.405 432.632 162.962C434.236 164.518 435.037 167.113 435.037 170.745V182.985H421.17V186.805C421.17 187.041 421.288 187.159 421.524 187.159H425.061C425.297 187.159 425.415 187.041 425.415 186.805V184.471H435.037V186.452C435.037 190.037 434.236 192.631 432.632 194.235C431.075 195.791 428.481 196.569 424.849 196.569H421.736C418.104 196.569 415.486 195.791 413.882 194.235C412.326 192.678 411.547 190.084 411.547 186.452ZM425.415 170.391C425.415 170.155 425.297 170.037 425.061 170.037H421.524C421.288 170.037 421.17 170.155 421.17 170.391V174.99H425.415V170.391ZM438.58 196.003V170.037H437.165L437.873 160.627H448.203V164.377L450.75 160.627H451.882C455.514 160.627 458.108 161.405 459.665 162.962C461.268 164.518 462.07 167.113 462.07 170.745V186.593H463.485L462.778 196.003H452.448V170.391C452.448 170.155 452.33 170.037 452.094 170.037H448.203V196.003H438.58ZM480.736 186.593V196.003H473.802C471.821 196.003 470.217 195.414 468.991 194.235C467.764 193.008 467.151 191.404 467.151 189.423V169.329H464.25L464.958 160.627H467.151V155.886H465.665L466.373 146.476H476.703V160.627H480.028L479.321 169.329H476.703V186.593H480.736Z" fill="url(#paint2_linear_286_70)"/>
<defs>
<linearGradient id="paint0_linear_286_70" x1="535.744" y1="270.586" x2="217.131" y2="65.4864" gradientUnits="userSpaceOnUse">
<stop stop-color="#9570EC"/>
<stop offset="0.673922" stop-color="#7E4BEC"/>
<stop offset="0.768343" stop-color="#6725EB"/>
</linearGradient>
<linearGradient id="paint1_linear_286_70" x1="388.85" y1="90.4067" x2="388.85" y2="143.407" gradientUnits="userSpaceOnUse">
<stop stop-color="#6725EB"/>
<stop offset="0.5" stop-color="#7E4BEC"/>
<stop offset="1" stop-color="#9570EC"/>
</linearGradient>
<linearGradient id="paint2_linear_286_70" x1="354.571" y1="97.5614" x2="268.338" y2="226.087" gradientUnits="userSpaceOnUse">
<stop offset="0.0543546" stop-color="#7E4BEC"/>
<stop offset="0.352265" stop-color="#6725EB"/>
<stop offset="0.610603" stop-color="#804EEC"/>
<stop offset="1" stop-color="#9570EC"/>
</linearGradient>
</defs>
</svg>
