<svg width="227" height="" viewBox="0 0 227 80" fill="none" xmlns="http://www.w3.org/2000/svg">
<mask id="path-1-inside-1_351_388" fill="white">
<path d="M5.55677 41.7111C11.7312 45.5198 24.1921 53.1372 24.64 53.1372V37.964L39.2441 33.9394L35.5114 21.5881L19.5543 18.6274L3.27051 26.7229L5.55677 41.7111Z"/>
</mask>
<path d="M24.64 53.1372V118.488H89.9907V53.1372H24.64ZM5.55677 41.7111L-59.0466 51.5655L-54.4871 81.4566L-28.7525 97.331L5.55677 41.7111ZM3.27051 26.7229L-25.8217 -31.7951L-68.5239 -10.5656L-61.3329 36.5773L3.27051 26.7229ZM19.5543 18.6274L31.4757 -45.6266L10.0108 -49.6092L-9.53792 -39.8905L19.5543 18.6274ZM35.5114 21.5881L98.0679 2.68309L86.5567 -35.4071L47.4329 -42.666L35.5114 21.5881ZM39.2441 33.9394L56.6063 96.9415L121.176 79.1473L101.801 15.0345L39.2441 33.9394ZM24.64 37.964L7.27784 -25.038L-40.7106 -11.8133V37.964H24.64ZM24.64 -12.2134C30.0035 -12.2134 34.2546 -11.5461 36.6077 -11.1073C39.1818 -10.6272 41.2674 -10.0769 42.6554 -9.67817C45.366 -8.89941 47.4533 -8.10591 48.5046 -7.69199C50.6667 -6.84073 52.2867 -6.06382 52.8537 -5.78983C54.1754 -5.15115 55.1118 -4.63734 55.2287 -4.5736C55.6613 -4.33774 55.7512 -4.27823 55.2396 -4.57633C54.3594 -5.08924 52.9138 -5.95076 51.0211 -7.09342C47.3205 -9.3275 42.8534 -12.0661 39.8661 -13.9089L-28.7525 97.331C-25.5654 99.297 -20.7149 102.271 -16.5294 104.798C-14.4791 106.036 -12.3396 107.317 -10.5644 108.351C-9.74833 108.827 -8.56323 109.511 -7.33935 110.179C-6.82678 110.458 -5.57067 111.139 -4.01423 111.891C-3.32988 112.222 -1.61372 113.042 0.622149 113.923C1.71036 114.351 3.82897 115.155 6.56518 115.942C8.08963 116.38 15.234 118.488 24.64 118.488V-12.2134ZM70.1601 31.8566L67.8739 16.8685L-61.3329 36.5773L-59.0466 51.5655L70.1601 31.8566ZM32.3627 85.2409L48.6465 77.1454L-9.53792 -39.8905L-25.8217 -31.7951L32.3627 85.2409ZM7.63282 82.8815L23.59 85.8421L47.4329 -42.666L31.4757 -45.6266L7.63282 82.8815ZM-27.045 40.493L-23.3124 52.8444L101.801 15.0345L98.0679 2.68309L-27.045 40.493ZM21.8819 -29.0626L7.27784 -25.038L42.0022 100.966L56.6063 96.9415L21.8819 -29.0626ZM-40.7106 37.964V53.1372H89.9907V37.964H-40.7106Z" fill="black" mask="url(#path-1-inside-1_351_388)"/>
<path d="M49.8359 33.804V18.1106H49.3101L49.6975 14.4294H53.6001L56.7554 24.947V14.4294H60.5196V33.804H56.7554L53.6001 23.2863V33.804H49.8359ZM61.6354 30.0674V23.9229C61.6354 22.5021 61.9398 21.4873 62.5488 20.8784C63.1761 20.2695 64.2002 19.965 65.621 19.965H66.8388C68.2596 19.965 69.2745 20.2695 69.8834 20.8784C70.5108 21.4873 70.8245 22.5021 70.8245 23.9229V28.7112H65.3996V30.2058C65.3996 30.2981 65.4457 30.3442 65.538 30.3442H66.9219C67.0141 30.3442 67.0603 30.2981 67.0603 30.2058V29.2925H70.8245V30.0674C70.8245 31.4698 70.5108 32.4846 69.8834 33.112C69.2745 33.7209 68.2596 34.0254 66.8388 34.0254H65.621C64.2002 34.0254 63.1761 33.7209 62.5488 33.112C61.9398 32.5031 61.6354 31.4882 61.6354 30.0674ZM67.0603 23.7845C67.0603 23.6923 67.0141 23.6462 66.9219 23.6462H65.538C65.4457 23.6462 65.3996 23.6923 65.3996 23.7845V25.5836H67.0603V23.7845ZM71.3929 33.804L73.8009 26.8845L71.3929 19.965H75.1294L76.2366 24.3935L77.316 19.965H81.0525L78.6445 26.8845L81.0525 33.804H77.316L76.2366 29.3755L75.1294 33.804H71.3929ZM88.3227 30.1228V33.804H85.6103C84.8353 33.804 84.208 33.5733 83.7282 33.112C83.2484 32.6323 83.0086 32.0049 83.0086 31.2299V23.3694H81.8738L82.1506 19.965H83.0086V18.1106H82.4273L82.7041 14.4294H86.7451V19.965H88.046L87.7692 23.3694H86.7451V30.1228H88.3227Z" fill="black"/>
<path d="M90.8647 33.5491V26.1383H90.6163L90.7993 24.4H94.5374L94.4328 26.1383H92.6422V28.0988H94.2498L94.1453 29.8372H92.6422V31.8107H94.5374L94.4328 33.5491H90.8647ZM95.1888 33.5491V28.7523H94.9274L95.0581 27.014H96.9664V27.759L97.4369 27.014H98.4956V29.0137H96.9664V33.5491H95.1888ZM100.769 33.5491C100.098 33.5491 99.6148 33.4053 99.3186 33.1178C99.031 32.8215 98.8873 32.3423 98.8873 31.68V28.883C98.8873 28.2121 99.0267 27.7329 99.3055 27.4453C99.5931 27.1578 100.064 27.014 100.717 27.014H100.835C101.061 27.014 101.266 27.0532 101.449 27.1316V27.014H103.227V31.8107H103.357L103.488 33.5491H101.449V32.8564L100.978 33.5491H100.769ZM100.73 28.7523C100.687 28.7523 100.665 28.7741 100.665 28.8177V31.7454C100.665 31.789 100.687 31.8107 100.73 31.8107H101.449V28.7523H100.73Z" fill="black"/>
<path d="M56.0762 46.4479C56.0762 47.3244 55.8802 47.9587 55.4881 48.3508C55.1075 48.7313 54.4732 48.9216 53.5852 48.9216H50.3331V39.1133H50.0044L50.2466 36.8125H53.5852C54.4732 36.8125 55.1075 37.0028 55.4881 37.3834C55.8802 37.764 56.0762 38.3983 56.0762 39.2863V46.4479ZM53.6371 46.6209C53.6948 46.6209 53.7236 46.5921 53.7236 46.5344V39.1998C53.7236 39.1421 53.6948 39.1133 53.6371 39.1133H52.6857V46.6209H53.6371ZM56.7617 46.5863V42.746C56.7617 41.858 56.952 41.2237 57.3326 40.8431C57.7247 40.4626 58.3647 40.2723 59.2527 40.2723H60.0139C60.9019 40.2723 61.5361 40.4626 61.9167 40.8431C62.3088 41.2237 62.5049 41.858 62.5049 42.746V45.7387H59.1143V46.6728C59.1143 46.7305 59.1432 46.7593 59.2008 46.7593H60.0658C60.1234 46.7593 60.1522 46.7305 60.1522 46.6728V46.1019H62.5049V46.5863C62.5049 47.4628 62.3088 48.0971 61.9167 48.4892C61.5361 48.8697 60.9019 49.06 60.0139 49.06H59.2527C58.3647 49.06 57.7247 48.8697 57.3326 48.4892C56.952 48.1086 56.7617 47.4743 56.7617 46.5863ZM60.1522 42.6595C60.1522 42.6018 60.1234 42.573 60.0658 42.573H59.2008C59.1432 42.573 59.1143 42.6018 59.1143 42.6595V43.7839H60.1522V42.6595ZM64.5208 48.9216L62.8602 40.2723H64.8668L65.6972 45.064L66.5275 40.2723H68.5341L66.8735 48.9216H64.5208ZM68.8911 46.5863V42.746C68.8911 41.858 69.0814 41.2237 69.4619 40.8431C69.854 40.4626 70.4941 40.2723 71.3821 40.2723H72.1432C73.0312 40.2723 73.6655 40.4626 74.0461 40.8431C74.4382 41.2237 74.6342 41.858 74.6342 42.746V45.7387H71.2437V46.6728C71.2437 46.7305 71.2725 46.7593 71.3302 46.7593H72.1951C72.2528 46.7593 72.2816 46.7305 72.2816 46.6728V46.1019H74.6342V46.5863C74.6342 47.4628 74.4382 48.0971 74.0461 48.4892C73.6655 48.8697 73.0312 49.06 72.1432 49.06H71.3821C70.4941 49.06 69.854 48.8697 69.4619 48.4892C69.0814 48.1086 68.8911 47.4743 68.8911 46.5863ZM72.2816 42.6595C72.2816 42.6018 72.2528 42.573 72.1951 42.573H71.3302C71.2725 42.573 71.2437 42.6018 71.2437 42.6595V43.7839H72.2816V42.6595ZM75.6042 48.9216V39.1133H75.3274L75.5004 36.8125H77.9568V46.6209H78.3028L78.4758 48.9216H75.6042ZM82.2993 42.6595C82.2993 42.6018 82.2705 42.573 82.2128 42.573H81.3479C81.2902 42.573 81.2614 42.6018 81.2614 42.6595V46.6728C81.2614 46.7305 81.2902 46.7593 81.3479 46.7593H82.2128C82.2705 46.7593 82.2993 46.7305 82.2993 46.6728V42.6595ZM78.9088 46.5863V42.746C78.9088 41.858 79.0991 41.2237 79.4796 40.8431C79.8717 40.4626 80.5118 40.2723 81.3998 40.2723H82.1609C83.0489 40.2723 83.6832 40.4626 84.0638 40.8431C84.4559 41.2237 84.6519 41.858 84.6519 42.746V46.5863C84.6519 47.4628 84.4559 48.0971 84.0638 48.4892C83.6832 48.8697 83.0489 49.06 82.1609 49.06H81.3998C80.5118 49.06 79.8717 48.8697 79.4796 48.4892C79.0991 48.1086 78.9088 47.4743 78.9088 46.5863ZM85.6026 51.2051V42.573H85.2566L85.4296 40.2723H87.9552V41.1891L88.5779 40.2723H88.8547C89.7427 40.2723 90.377 40.4626 90.7576 40.8431C91.1497 41.2237 91.3457 41.858 91.3457 42.746V46.4479C91.3457 47.3244 91.1554 47.9587 90.7749 48.3508C90.4058 48.7313 89.7888 48.9216 88.9239 48.9216H88.7682C88.4684 48.9216 88.1974 48.8697 87.9552 48.7659V51.2051H85.6026ZM88.9066 46.6209C88.9643 46.6209 88.9931 46.5921 88.9931 46.5344V42.6595C88.9931 42.6018 88.9643 42.573 88.9066 42.573H87.9552V46.6209H88.9066ZM92.2923 48.9216V42.573H91.9463L92.1193 40.2723H94.6449V41.1891L95.2677 40.2723H95.5444C96.7438 40.2723 97.4992 40.6471 97.8106 41.3967L98.5717 40.2723H98.935C99.823 40.2723 100.457 40.4626 100.838 40.8431C101.23 41.2237 101.426 41.858 101.426 42.746V46.6209H101.772L101.599 48.9216H99.0734V42.6595C99.0734 42.6018 99.0445 42.573 98.9869 42.573H98.0355C98.0355 42.6191 98.0355 42.6768 98.0355 42.746V48.9216H95.6828V42.6595C95.6828 42.6018 95.654 42.573 95.5963 42.573H94.6449V48.9216H92.2923ZM102.289 46.5863V42.746C102.289 41.858 102.479 41.2237 102.86 40.8431C103.252 40.4626 103.892 40.2723 104.78 40.2723H105.541C106.429 40.2723 107.063 40.4626 107.444 40.8431C107.836 41.2237 108.032 41.858 108.032 42.746V45.7387H104.642V46.6728C104.642 46.7305 104.67 46.7593 104.728 46.7593H105.593C105.651 46.7593 105.68 46.7305 105.68 46.6728V46.1019H108.032V46.5863C108.032 47.4628 107.836 48.0971 107.444 48.4892C107.063 48.8697 106.429 49.06 105.541 49.06H104.78C103.892 49.06 103.252 48.8697 102.86 48.4892C102.479 48.1086 102.289 47.4743 102.289 46.5863ZM105.68 42.6595C105.68 42.6018 105.651 42.573 105.593 42.573H104.728C104.67 42.573 104.642 42.6018 104.642 42.6595V43.7839H105.68V42.6595ZM108.898 48.9216V42.573H108.552L108.725 40.2723H111.251V41.1891L111.874 40.2723H112.151C113.039 40.2723 113.673 40.4626 114.053 40.8431C114.445 41.2237 114.642 41.858 114.642 42.746V46.6209H114.988L114.815 48.9216H112.289V42.6595C112.289 42.6018 112.26 42.573 112.202 42.573H111.251V48.9216H108.898ZM119.205 46.6209V48.9216H117.51C117.026 48.9216 116.633 48.7775 116.334 48.4892C116.034 48.1893 115.884 47.7972 115.884 47.3129V42.4H115.175L115.348 40.2723H115.884V39.1133H115.521L115.694 36.8125H118.219V40.2723H119.032L118.859 42.4H118.219V46.6209H119.205Z" fill="black"/>
</svg>
