<svg width="227" height="80" viewBox="0 0 227 80" fill="none" xmlns="http://www.w3.org/2000/svg">
<mask id="path-1-inside-1_299_16" fill="white">
<path d="M5.55677 41.7111C11.7312 45.5198 24.1922 53.1372 24.6401 53.1372V37.964L39.2442 33.9394L35.5115 21.5881L19.5543 18.6274L3.27051 26.7229L5.55677 41.7111Z"/>
</mask>
<path d="M24.6401 53.1372V119.804H91.3067V53.1372H24.6401ZM5.55677 41.7111L-60.3476 51.764L-55.6962 82.257L-29.4434 98.4511L5.55677 41.7111ZM3.27051 26.7229L-26.4075 -32.9735L-69.9698 -11.3166L-62.6338 36.7758L3.27051 26.7229ZM19.5543 18.6274L31.7158 -46.9206L9.81866 -50.9833L-10.1237 -41.069L19.5543 18.6274ZM35.5115 21.5881L99.3277 2.30235L87.5847 -36.5549L47.673 -43.9599L35.5115 21.5881ZM39.2442 33.9394L56.9559 98.2102L122.826 80.0578L103.06 14.6537L39.2442 33.9394ZM24.6401 37.964L6.92831 -26.3068L-42.0266 -12.8158V37.964H24.6401ZM24.6401 -13.5294C30.1117 -13.5294 34.4484 -12.8486 36.8489 -12.401C39.475 -11.9113 41.6027 -11.3499 43.0188 -10.943C45.7843 -10.1485 47.9139 -9.33895 48.9867 -8.91654C51.1931 -8.04786 52.8467 -7.25486 53.4263 -6.97479C54.7769 -6.32211 55.7354 -5.79627 55.8587 -5.72907C56.3079 -5.48412 56.4106 -5.41712 55.9021 -5.71343C55.0309 -6.22109 53.5924 -7.07839 51.7012 -8.22009C48.0055 -10.4512 43.5422 -13.1875 40.5569 -15.029L-29.4434 98.4511C-26.2542 100.418 -21.3998 103.395 -17.2095 105.925C-15.1576 107.164 -13.011 108.449 -11.2269 109.488C-10.4077 109.966 -9.20978 110.658 -7.96921 111.334C-7.45031 111.617 -6.17212 112.31 -4.5867 113.076C-3.88975 113.413 -2.13999 114.249 0.140154 115.147C1.2499 115.584 3.41086 116.405 6.20191 117.206C7.75681 117.653 15.0448 119.804 24.6401 119.804V-13.5294ZM71.4611 31.6582L69.1749 16.67L-62.6338 36.7758L-60.3476 51.764L71.4611 31.6582ZM32.9485 86.4193L49.2323 78.3239L-10.1237 -41.069L-26.4075 -32.9735L32.9485 86.4193ZM7.39282 84.1755L23.35 87.1361L47.673 -43.9599L31.7158 -46.9206L7.39282 84.1755ZM-28.3047 40.8738L-24.572 53.2252L103.06 14.6537L99.3277 2.30235L-28.3047 40.8738ZM21.5324 -30.3314L6.92831 -26.3068L42.3518 102.235L56.9559 98.2102L21.5324 -30.3314ZM-42.0266 37.964V53.1372H91.3067V37.964H-42.0266Z" fill="white" mask="url(#path-1-inside-1_299_16)"/>
<path d="M49.4566 33.804V17.7945H48.9201L49.3154 14.0392H53.2966L56.5154 24.7687V14.0392H60.3554V33.804H56.5154L53.2966 23.0745V33.804H49.4566ZM61.4936 29.9922V23.724C61.4936 22.2745 61.8042 21.2392 62.4254 20.6181C63.0654 19.9969 64.1101 19.6863 65.5595 19.6863H66.8019C68.2513 19.6863 69.2866 19.9969 69.9077 20.6181C70.5478 21.2392 70.8678 22.2745 70.8678 23.724V28.6087H65.3336V30.1334C65.3336 30.2275 65.3807 30.2745 65.4748 30.2745H66.8866C66.9807 30.2745 67.0277 30.2275 67.0277 30.1334V29.2016H70.8678V29.9922C70.8678 31.4228 70.5478 32.4581 69.9077 33.0981C69.2866 33.7192 68.2513 34.0298 66.8019 34.0298H65.5595C64.1101 34.0298 63.0654 33.7192 62.4254 33.0981C61.8042 32.4769 61.4936 31.4416 61.4936 29.9922ZM67.0277 23.5828C67.0277 23.4887 66.9807 23.4416 66.8866 23.4416H65.4748C65.3807 23.4416 65.3336 23.4887 65.3336 23.5828V25.4181H67.0277V23.5828ZM71.4477 33.804L73.9041 26.7451L71.4477 19.6863H75.2594L76.3889 24.204L77.49 19.6863H81.3018L78.8453 26.7451L81.3018 33.804H77.49L76.3889 29.2863L75.2594 33.804H71.4477ZM88.7184 30.0487V33.804H85.9513C85.1608 33.804 84.5208 33.5687 84.0313 33.0981C83.5419 32.6087 83.2972 31.9687 83.2972 31.1781V23.1592H82.1396L82.4219 19.6863H83.2972V17.7945H82.7043L82.9866 14.0392H87.109V19.6863H88.4361L88.1537 23.1592H87.109V30.0487H88.7184Z" fill="#FEFDFF"/>
<path d="M90.7414 33.5491V25.9891H90.4881L90.6747 24.2157H94.4881L94.3814 25.9891H92.5547V27.9891H94.1947L94.0881 29.7624H92.5547V31.7757H94.4881L94.3814 33.5491H90.7414ZM95.1527 33.5491V28.6557H94.886L95.0193 26.8824H96.966V27.6424L97.446 26.8824H98.526V28.9224H96.966V33.5491H95.1527ZM100.846 33.5491C100.161 33.5491 99.6678 33.4024 99.3656 33.1091C99.0722 32.8069 98.9256 32.318 98.9256 31.6424V28.7891C98.9256 28.1046 99.0678 27.6157 99.3522 27.3224C99.6456 27.0291 100.126 26.8824 100.792 26.8824H100.912C101.143 26.8824 101.352 26.9224 101.539 27.0024V26.8824H103.352V31.7757H103.486L103.619 33.5491H101.539V32.8424L101.059 33.5491H100.846ZM100.806 28.6557C100.761 28.6557 100.739 28.678 100.739 28.7224V31.7091C100.739 31.7535 100.761 31.7757 100.806 31.7757H101.539V28.6557H100.806Z" fill="white"/>
<path d="M55.5036 46.398C55.5036 47.2921 55.3036 47.9392 54.9036 48.3392C54.5154 48.7274 53.8683 48.9215 52.9624 48.9215H49.6448V38.9156H49.3095L49.5565 36.5686H52.9624C53.8683 36.5686 54.5154 36.7627 54.9036 37.1509C55.3036 37.5392 55.5036 38.1862 55.5036 39.0921V46.398ZM53.0154 46.5744C53.0742 46.5744 53.1036 46.545 53.1036 46.4862V39.0039C53.1036 38.945 53.0742 38.9156 53.0154 38.9156H52.0448V46.5744H53.0154ZM56.2029 46.5392V42.6215C56.2029 41.7156 56.397 41.0686 56.7852 40.6803C57.1852 40.2921 57.8381 40.098 58.744 40.098H59.5205C60.4264 40.098 61.0734 40.2921 61.4617 40.6803C61.8617 41.0686 62.0617 41.7156 62.0617 42.6215V45.6744H58.6029V46.6274C58.6029 46.6862 58.6323 46.7156 58.6911 46.7156H59.5734C59.6323 46.7156 59.6617 46.6862 59.6617 46.6274V46.045H62.0617V46.5392C62.0617 47.4333 61.8617 48.0803 61.4617 48.4803C61.0734 48.8686 60.4264 49.0627 59.5205 49.0627H58.744C57.8381 49.0627 57.1852 48.8686 56.7852 48.4803C56.397 48.0921 56.2029 47.445 56.2029 46.5392ZM59.6617 42.5333C59.6617 42.4744 59.6323 42.445 59.5734 42.445H58.6911C58.6323 42.445 58.6029 42.4744 58.6029 42.5333V43.6803H59.6617V42.5333ZM64.1182 48.9215L62.4241 40.098H64.4712L65.3182 44.9862L66.1653 40.098H68.2124L66.5182 48.9215H64.1182ZM68.5765 46.5392V42.6215C68.5765 41.7156 68.7706 41.0686 69.1588 40.6803C69.5588 40.2921 70.2118 40.098 71.1176 40.098H71.8941C72.8 40.098 73.4471 40.2921 73.8353 40.6803C74.2353 41.0686 74.4353 41.7156 74.4353 42.6215V45.6744H70.9765V46.6274C70.9765 46.6862 71.0059 46.7156 71.0647 46.7156H71.9471C72.0059 46.7156 72.0353 46.6862 72.0353 46.6274V46.045H74.4353V46.5392C74.4353 47.4333 74.2353 48.0803 73.8353 48.4803C73.4471 48.8686 72.8 49.0627 71.8941 49.0627H71.1176C70.2118 49.0627 69.5588 48.8686 69.1588 48.4803C68.7706 48.0921 68.5765 47.445 68.5765 46.5392ZM72.0353 42.5333C72.0353 42.4744 72.0059 42.445 71.9471 42.445H71.0647C71.0059 42.445 70.9765 42.4744 70.9765 42.5333V43.6803H72.0353V42.5333ZM75.4248 48.9215V38.9156H75.1424L75.3189 36.5686H77.8248V46.5744H78.1777L78.3542 48.9215H75.4248ZM82.2547 42.5333C82.2547 42.4744 82.2253 42.445 82.1665 42.445H81.2841C81.2253 42.445 81.1959 42.4744 81.1959 42.5333V46.6274C81.1959 46.6862 81.2253 46.7156 81.2841 46.7156H82.1665C82.2253 46.7156 82.2547 46.6862 82.2547 46.6274V42.5333ZM78.7959 46.5392V42.6215C78.7959 41.7156 78.99 41.0686 79.3783 40.6803C79.7783 40.2921 80.4312 40.098 81.3371 40.098H82.1136C83.0194 40.098 83.6665 40.2921 84.0547 40.6803C84.4547 41.0686 84.6547 41.7156 84.6547 42.6215V46.5392C84.6547 47.4333 84.4547 48.0803 84.0547 48.4803C83.6665 48.8686 83.0194 49.0627 82.1136 49.0627H81.3371C80.4312 49.0627 79.7783 48.8686 79.3783 48.4803C78.99 48.0921 78.7959 47.445 78.7959 46.5392ZM85.6245 51.2509V42.445H85.2716L85.448 40.098H88.0245V41.0333L88.6598 40.098H88.9421C89.848 40.098 90.4951 40.2921 90.8833 40.6803C91.2833 41.0686 91.4833 41.7156 91.4833 42.6215V46.398C91.4833 47.2921 91.2892 47.9392 90.901 48.3392C90.5245 48.7274 89.8951 48.9215 89.0127 48.9215H88.8539C88.548 48.9215 88.2716 48.8686 88.0245 48.7627V51.2509H85.6245ZM88.9951 46.5744C89.0539 46.5744 89.0833 46.545 89.0833 46.4862V42.5333C89.0833 42.4744 89.0539 42.445 88.9951 42.445H88.0245V46.5744H88.9951ZM92.4489 48.9215V42.445H92.096L92.2725 40.098H94.8489V41.0333L95.4842 40.098H95.7666C96.9901 40.098 97.7607 40.4803 98.0784 41.245L98.8548 40.098H99.2254C100.131 40.098 100.778 40.2921 101.167 40.6803C101.567 41.0686 101.767 41.7156 101.767 42.6215V46.5744H102.12L101.943 48.9215H99.3666V42.5333C99.3666 42.4744 99.3372 42.445 99.2784 42.445H98.3078C98.3078 42.4921 98.3078 42.5509 98.3078 42.6215V48.9215H95.9078V42.5333C95.9078 42.4744 95.8784 42.445 95.8195 42.445H94.8489V48.9215H92.4489ZM102.647 46.5392V42.6215C102.647 41.7156 102.841 41.0686 103.229 40.6803C103.629 40.2921 104.282 40.098 105.188 40.098H105.965C106.871 40.098 107.518 40.2921 107.906 40.6803C108.306 41.0686 108.506 41.7156 108.506 42.6215V45.6744H105.047V46.6274C105.047 46.6862 105.076 46.7156 105.135 46.7156H106.018C106.076 46.7156 106.106 46.6862 106.106 46.6274V46.045H108.506V46.5392C108.506 47.4333 108.306 48.0803 107.906 48.4803C107.518 48.8686 106.871 49.0627 105.965 49.0627H105.188C104.282 49.0627 103.629 48.8686 103.229 48.4803C102.841 48.0921 102.647 47.445 102.647 46.5392ZM106.106 42.5333C106.106 42.4744 106.076 42.445 106.018 42.445H105.135C105.076 42.445 105.047 42.4744 105.047 42.5333V43.6803H106.106V42.5333ZM109.389 48.9215V42.445H109.036L109.213 40.098H111.789V41.0333L112.425 40.098H112.707C113.613 40.098 114.26 40.2921 114.648 40.6803C115.048 41.0686 115.248 41.7156 115.248 42.6215V46.5744H115.601L115.425 48.9215H112.848V42.5333C112.848 42.4744 112.819 42.445 112.76 42.445H111.789V48.9215H109.389ZM119.904 46.5744V48.9215H118.174C117.68 48.9215 117.28 48.7744 116.974 48.4803C116.668 48.1744 116.516 47.7744 116.516 47.2803V42.2686H115.792L115.968 40.098H116.516V38.9156H116.145L116.321 36.5686H118.898V40.098H119.727L119.551 42.2686H118.898V46.5744H119.904Z" fill="#FEFEFF"/>
</svg>
